<svg width="200" height="48" viewBox="0 0 200 48" fill="none" xmlns="http://www.w3.org/2000/svg">
<g clip-path="url(#clip0_185_705)">
<mask id="mask0_185_705" style="mask-type:luminance" maskUnits="userSpaceOnUse" x="7" y="4" width="41" height="40">
<path d="M47.0344 4.13672H7.3103V43.8609H47.0344V4.13672Z" fill="white"/>
</mask>
<g mask="url(#mask0_185_705)">
<path fill-rule="evenodd" clip-rule="evenodd" d="M28.9305 34.3302C29.3481 33.429 29.6217 32.4297 29.7128 31.3483H32.001C31.9005 32.8584 31.518 34.2439 30.9179 35.4779L28.9305 34.3302ZM21.5954 39.4545C22.6209 39.354 23.6249 39.0792 24.5572 38.6484L25.6994 40.6271C24.4166 41.2473 23.0217 41.6312 21.5953 41.7453L21.5954 39.4545ZM17.0275 38.677C17.9884 39.1288 18.9965 39.3874 20.007 39.4687V41.7595C18.607 41.6717 17.208 41.314 15.8829 40.6604L17.0275 38.677ZM13.4822 35.6959C13.7736 36.1037 14.1046 36.4982 14.4807 36.8732C14.8565 37.249 15.2501 37.5802 15.658 37.8717L14.5116 39.856C13.941 39.4641 13.3904 39.0091 12.8676 38.4863C12.3448 37.9636 11.8899 37.413 11.4972 36.8414L13.4822 35.6959ZM11.8857 31.3477C11.9678 32.3573 12.225 33.3653 12.6766 34.3263L10.6923 35.471C10.0379 34.1458 9.68103 32.7467 9.59416 31.3477H11.8857ZM12.7055 26.7974C12.2754 27.7296 11.9993 28.7329 11.8994 29.7592H9.60863C9.72276 28.332 10.1066 26.9376 10.726 25.6543L12.7055 26.7974ZM14.5038 21.2357L15.6507 23.2217C14.8014 23.8266 14.0751 24.5737 13.4925 25.4166L11.5146 24.2742C12.3007 23.0923 13.3079 22.054 14.5038 21.2357ZM20.0061 19.3537V21.6419C18.9246 21.732 17.9253 22.0057 17.0242 22.4233L15.8772 20.4359C17.1105 19.8358 18.4959 19.4543 20.0061 19.3537ZM25.7136 20.4536L24.5685 22.437C23.6506 22.0108 22.6496 21.7355 21.5954 21.6436V19.3537C23.0637 19.4558 24.4542 19.8414 25.7136 20.4536ZM28.1202 25.4094C27.5256 24.5651 26.7882 23.8282 25.9436 23.2329L27.0896 21.2486C28.2766 22.0514 29.3013 23.0764 30.1049 24.2631L28.1202 25.4094ZM29.7108 29.7593C29.6181 28.7048 29.3428 27.7024 28.9158 26.7854L30.8992 25.6402C31.513 26.8996 31.8977 28.2909 31.9998 29.7601L29.7108 29.7593ZM20.7979 25.0495C21.976 26.4527 24.9994 29.4306 24.9994 31.2575C24.9994 32.8498 23.4246 34.0654 21.9559 33.3161L22.4757 35.4264H19.1192L19.6395 33.3152C18.1725 34.0671 16.5952 32.8497 16.5952 31.2575C16.5963 29.4311 19.6197 26.4533 20.7979 25.0495ZM11.2692 40.0868C19.7417 48.5593 34.2859 42.5267 34.2859 30.5518C34.2859 23.1062 28.2494 17.0687 20.8029 17.0687C8.82915 17.0687 2.79597 31.6136 11.2692 40.0868ZM42.5475 16.7644L42.3632 15.2639L43.8637 15.0796L44.0471 16.5801L42.5475 16.7644ZM37.7771 17.5898L37.6668 16.0829L39.1737 15.9718L39.2839 17.4787L37.7771 17.5898ZM33.8063 16.3103V17.8219H32.2945V16.3103H33.8063ZM30.5867 19.0885C34.5193 19.2091 44.7659 18.6401 47.0307 15.7698V12.4151C43.3904 14.7802 36.3904 15.3388 32.22 15.3388C28.0514 15.3388 21.048 14.7793 17.4093 12.4151V15.7698L17.4627 15.8351C19.0024 15.4975 20.6075 15.4017 22.1797 15.5423L22.2365 15.0786L23.7362 15.2629L23.6762 15.7536C24.5342 15.919 25.3652 16.1576 26.164 16.4624L26.8689 16.7505L26.9262 15.9708L28.4339 16.0819L28.3309 17.4921C29.1246 17.9511 29.8809 18.4844 30.5867 19.0885ZM42.5475 22.2188L42.364 20.7184L43.8636 20.5341L44.0479 22.0345L42.5475 22.2188ZM37.7771 23.243L37.6668 21.7361L39.1737 21.625L39.2839 23.1319L37.7771 23.243ZM47.0313 17.8531C43.3988 20.2109 36.4359 20.7718 32.2741 20.7768C32.5981 21.1568 32.9037 21.5527 33.1897 21.9643H33.8066V22.9286C34.0938 23.418 34.3549 23.9255 34.5862 24.4474C36.6876 24.3547 45.1019 23.6006 47.031 21.1567L47.0313 17.8531ZM42.5478 27.5171L42.3644 26.0167L43.864 25.8324L44.0483 27.3329L42.5478 27.5171ZM37.7774 28.5412L37.6672 27.0344L39.174 26.9233L39.2843 28.4302L37.7774 28.5412ZM47.0317 23.2382C44.013 25.1977 38.6903 25.8769 35.1998 26.0774C35.5678 27.2619 35.7928 28.5084 35.8542 29.7984C38.0109 29.6476 45.2882 28.7888 47.0312 26.5796L47.0317 23.2382ZM37.6677 32.5324L39.1745 32.4208L39.2848 33.9277L37.7771 34.0387L37.6677 32.5324ZM42.5481 33.0154L42.3646 31.515L43.8642 31.3307L44.0485 32.8311L42.5481 33.0154ZM47.0315 28.6622C44.1518 30.5314 39.1847 31.2244 35.8481 31.4599C35.773 32.8183 35.5272 34.1016 35.1361 35.3014C38.5857 35.1052 47.0321 34.1584 47.0321 30.6139L47.0315 28.6622ZM32.2202 13.6755C34.9387 13.6755 44.8423 13.1073 47.0308 10.3328V8.90643C47.0316 4.83603 36.1425 4.13672 32.2202 4.13672C28.2981 4.13672 17.4094 4.836 17.4094 8.90643V10.3328C19.5949 13.1065 29.5057 13.6755 32.2202 13.6755ZM25.9378 37.8609C26.7808 37.2783 27.5284 36.5529 28.1336 35.7036L30.1201 36.8505C29.3027 38.0452 28.2628 39.0532 27.0808 39.8396L25.9378 37.8609Z" fill="#B2F6FF"/>
</g>
<path d="M62.8666 19.1627H56.4458V4.8247H62.7576C64.0985 4.8247 65.162 5.14598 65.9481 5.78852C66.7341 6.43107 67.1272 7.30214 67.1272 8.40176C67.1272 9.18343 66.8696 9.86903 66.3543 10.4586C65.8457 11.0481 65.2082 11.3992 64.442 11.5118V11.5913C65.4196 11.6641 66.2256 12.0251 66.8597 12.6744C67.4938 13.3235 67.8109 14.1184 67.8109 15.0591C67.8109 16.3242 67.3683 17.3245 66.4831 18.0598C65.598 18.795 64.3925 19.1627 62.8666 19.1627ZM59.4382 7.06036V10.7865H61.6776C62.4769 10.7865 63.0944 10.6209 63.5305 10.2897C63.9664 9.95179 64.1844 9.47816 64.1844 8.86877C64.1844 8.29246 63.9928 7.84863 63.6097 7.5373C63.2266 7.21934 62.6849 7.06036 61.9847 7.06036H59.4382ZM59.4382 16.9271H62.1036C62.969 16.9271 63.6262 16.7482 64.0754 16.3905C64.5312 16.0262 64.7591 15.5029 64.7591 14.8206C64.7591 14.1515 64.5245 13.6415 64.0555 13.2904C63.5932 12.9393 62.9194 12.7637 62.0342 12.7637H59.4382V16.9271ZM75.3995 10.2002C74.739 10.2002 74.1874 10.4188 73.7449 10.856C73.3089 11.2932 73.0645 11.8629 73.0116 12.5651H77.7181C77.6917 11.8496 77.4671 11.2766 77.0443 10.8461C76.6216 10.4155 76.0733 10.2002 75.3995 10.2002ZM77.7578 15.8241H80.4231C80.2646 16.884 79.7328 17.7385 78.8279 18.3876C77.9229 19.0303 76.8066 19.3515 75.4788 19.3515C73.8208 19.3515 72.5129 18.8513 71.555 17.8511C70.6038 16.8508 70.1282 15.4796 70.1282 13.7375C70.1282 11.9954 70.6005 10.6109 71.5451 9.58414C72.4964 8.55082 73.7712 8.03411 75.3699 8.03411C76.9419 8.03411 78.1904 8.52428 79.1152 9.50469C80.0466 10.485 80.5123 11.8066 80.5123 13.4693V14.3635H72.9819V14.5424C72.9819 15.3306 73.2164 15.9699 73.6854 16.46C74.1544 16.9436 74.7687 17.1854 75.5284 17.1854C76.0766 17.1854 76.5489 17.0661 76.9452 16.8277C77.3482 16.5826 77.619 16.2481 77.7578 15.8241ZM83.0972 11.4422C83.0972 10.4155 83.5134 9.59076 84.3456 8.96815C85.178 8.34546 86.2844 8.03411 87.665 8.03411C89.0126 8.03411 90.0992 8.35207 90.9251 8.98799C91.7504 9.61729 92.1731 10.4553 92.1934 11.5018H89.5179C89.4849 11.0713 89.2999 10.7302 88.963 10.4784C88.6261 10.2201 88.1803 10.0909 87.6253 10.0909C87.1036 10.0909 86.6841 10.2002 86.367 10.4188C86.05 10.6308 85.8914 10.9123 85.8914 11.2634C85.8914 11.7999 86.3769 12.1808 87.3479 12.406L89.399 12.8532C90.4955 13.1049 91.2786 13.4593 91.747 13.9164C92.223 14.3735 92.4606 15.0094 92.4606 15.8241C92.4606 16.884 92.0184 17.7385 91.1331 18.3876C90.2478 19.0303 89.0885 19.3515 87.6551 19.3515C86.2349 19.3515 85.0922 19.0369 84.2268 18.4076C83.3681 17.7716 82.9023 16.9204 82.8297 15.854H85.6536C85.7263 16.3176 85.941 16.6753 86.2976 16.9271C86.6543 17.1721 87.1332 17.2947 87.7344 17.2947C88.309 17.2947 88.7615 17.192 89.0918 16.9867C89.4221 16.7747 89.5873 16.4899 89.5873 16.1322C89.5873 15.8473 89.4816 15.6221 89.2702 15.4565C89.0654 15.2909 88.7153 15.1484 88.2199 15.0292L86.2085 14.5721C84.1343 14.1018 83.0972 13.0585 83.0972 11.4422ZM95.9568 5.78852H98.8502V8.22294H100.872V10.4188H98.8502V15.7347C98.8502 16.5693 99.2831 16.9867 100.148 16.9867C100.432 16.9867 100.674 16.9701 100.872 16.937V19.0832C100.475 19.1627 100.009 19.2025 99.475 19.2025C98.2127 19.2025 97.3114 18.9706 96.7694 18.5069C96.2282 18.0432 95.9568 17.2781 95.9568 16.2116V10.4188H94.4806V8.22294H95.9568V5.78852ZM110.946 6.57348C112.188 5.24203 113.869 4.5763 115.99 4.5763C118.11 4.5763 119.788 5.24203 121.023 6.57348C122.265 7.90494 122.886 9.71336 122.886 11.9987C122.886 14.2774 122.265 16.0825 121.023 17.4139C119.781 18.7454 118.104 19.4111 115.99 19.4111C113.869 19.4111 112.188 18.7454 110.946 17.4139C109.711 16.0825 109.094 14.2774 109.094 11.9987C109.094 9.71336 109.711 7.90494 110.946 6.57348ZM118.784 8.41168C118.09 7.52405 117.159 7.08023 115.99 7.08023C114.82 7.08023 113.886 7.52405 113.186 8.41168C112.492 9.29933 112.145 10.4949 112.145 11.9987C112.145 13.4957 112.492 14.6881 113.186 15.5757C113.879 16.4567 114.814 16.8972 115.99 16.8972C117.159 16.8972 118.09 16.4567 118.784 15.5757C119.478 14.6881 119.824 13.4957 119.824 11.9987C119.824 10.4949 119.478 9.29933 118.784 8.41168ZM125.827 19.1627V8.22294H128.622V10.1803H128.681C129.322 8.7694 130.491 8.06392 132.189 8.06392C133.397 8.06392 134.345 8.4249 135.033 9.14697C135.726 9.86903 136.073 10.8693 136.073 12.1477V19.1627H133.18V12.7538C133.18 12.0251 132.991 11.4654 132.615 11.0746C132.245 10.6772 131.72 10.4784 131.039 10.4784C130.346 10.4784 129.784 10.7036 129.355 11.1541C128.932 11.6045 128.721 12.194 128.721 12.9227V19.1627H125.827ZM139.292 19.1627V4.13911H142.185V19.1627H139.292ZM145.493 19.1627V8.22294H148.387V19.1627H145.493ZM146.94 7.03055C146.511 7.03055 146.144 6.88482 145.84 6.59335C145.536 6.30189 145.384 5.94088 145.384 5.51031C145.384 5.07974 145.536 4.72203 145.84 4.43719C146.144 4.14573 146.511 4 146.94 4C147.376 4 147.746 4.14573 148.05 4.43719C148.354 4.72203 148.506 5.07974 148.506 5.51031C148.506 5.94088 148.354 6.30189 148.05 6.59335C147.746 6.88482 147.376 7.03055 146.94 7.03055ZM151.616 19.1627V8.22294H154.41V10.1803H154.469C155.11 8.7694 156.28 8.06392 157.977 8.06392C159.186 8.06392 160.134 8.4249 160.821 9.14697C161.514 9.86903 161.861 10.8693 161.861 12.1477V19.1627H158.968V12.7538C158.968 12.0251 158.78 11.4654 158.403 11.0746C158.033 10.6772 157.508 10.4784 156.828 10.4784C156.134 10.4784 155.573 10.7036 155.143 11.1541C154.721 11.6045 154.509 12.194 154.509 12.9227V19.1627H151.616ZM169.865 10.2002C169.205 10.2002 168.654 10.4188 168.211 10.856C167.775 11.2932 167.531 11.8629 167.478 12.5651H172.185C172.158 11.8496 171.934 11.2766 171.511 10.8461C171.088 10.4155 170.539 10.2002 169.865 10.2002ZM172.224 15.8241H174.89C174.731 16.884 174.199 17.7385 173.294 18.3876C172.389 19.0303 171.272 19.3515 169.945 19.3515C168.287 19.3515 166.979 18.8513 166.022 17.8511C165.071 16.8508 164.594 15.4796 164.594 13.7375C164.594 11.9954 165.067 10.6109 166.012 9.58414C166.963 8.55082 168.238 8.03411 169.836 8.03411C171.409 8.03411 172.657 8.52428 173.582 9.50469C174.513 10.485 174.978 11.8066 174.978 13.4693V14.3635H167.448V14.5424C167.448 15.3306 167.682 15.9699 168.152 16.46C168.621 16.9436 169.235 17.1854 169.995 17.1854C170.543 17.1854 171.015 17.0661 171.412 16.8277C171.814 16.5826 172.085 16.2481 172.224 15.8241ZM62.7675 44C60.6801 44 59.0287 43.3408 57.8132 42.0226C56.6045 40.6978 56 38.8828 56 36.5776C56 34.279 56.6078 32.4706 57.8232 31.1524C59.0386 29.8276 60.6867 29.1652 62.7675 29.1652C63.9037 29.1652 64.9341 29.3904 65.8589 29.8409C66.7903 30.2913 67.5367 30.9272 68.0982 31.7486C68.6597 32.57 68.9768 33.5073 69.0494 34.5606H66.1364C65.9976 33.6795 65.6178 32.9741 64.9968 32.4442C64.3826 31.9142 63.6394 31.6493 62.7675 31.6493C61.6379 31.6493 60.7363 32.0931 60.0625 32.9807C59.3887 33.8684 59.0518 35.064 59.0518 36.5676C59.0518 38.0978 59.3854 39.3067 60.0526 40.1944C60.7197 41.0754 61.628 41.5159 62.7774 41.5159C63.6625 41.5159 64.4057 41.2708 65.0067 40.7806C65.6079 40.2905 65.9877 39.6214 66.1462 38.7735H69.0593C68.8942 40.3699 68.2436 41.6418 67.1074 42.589C65.9712 43.5297 64.5245 44 62.7675 44ZM76.0337 41.7643C76.7141 41.7643 77.2855 41.5755 77.7479 41.198C78.2102 40.8138 78.4415 40.3268 78.4415 39.7373V38.9325L76.1526 39.0915C75.5515 39.1312 75.0924 39.267 74.7753 39.4989C74.4582 39.7307 74.2997 40.0487 74.2997 40.4528C74.2997 40.8568 74.4549 41.178 74.7654 41.4166C75.0825 41.6484 75.5052 41.7643 76.0337 41.7643ZM75.0924 43.8807C74.0289 43.8807 73.1504 43.5761 72.4567 42.9666C71.7631 42.3572 71.4164 41.5689 71.4164 40.6018C71.4164 39.6148 71.783 38.843 72.5162 38.2866C73.2494 37.7302 74.3163 37.4089 75.7166 37.3228L78.4415 37.1539V36.4286C78.4415 35.9053 78.273 35.5045 77.9361 35.2263C77.5992 34.9415 77.1302 34.799 76.5292 34.799C76.0139 34.799 75.5812 34.9248 75.2311 35.1766C74.8876 35.4217 74.6796 35.7463 74.6069 36.1504H71.9613C72.001 35.1037 72.4501 34.2559 73.3089 33.6067C74.1742 32.9509 75.2873 32.623 76.648 32.623C78.0484 32.623 79.1714 32.9542 80.0169 33.6166C80.8624 34.279 81.2852 35.1567 81.2852 36.2497V43.7516H78.491V42.0624H78.4316C78.1409 42.6255 77.6884 43.0693 77.0741 43.3938C76.4663 43.7184 75.8058 43.8807 75.0924 43.8807ZM84.2664 36.0311C84.2664 35.0044 84.6826 34.1796 85.5149 33.557C86.3472 32.9343 87.4536 32.623 88.8342 32.623C90.1818 32.623 91.2684 32.9409 92.0945 33.5769C92.9197 34.2062 93.3425 35.0441 93.3628 36.0907H90.687C90.6541 35.6601 90.4691 35.319 90.1322 35.0673C89.7954 34.8089 89.3494 34.6798 88.7946 34.6798C88.2728 34.6798 87.8533 34.7891 87.5362 35.0077C87.2192 35.2197 87.0606 35.5012 87.0606 35.8523C87.0606 36.3888 87.5461 36.7697 88.5171 36.9949L90.5682 37.4421C91.665 37.6938 92.4471 38.0481 92.9164 38.5052C93.3924 38.9623 93.63 39.5983 93.63 40.413C93.63 41.4729 93.1869 42.3274 92.3025 42.9765C91.4172 43.6191 90.2577 43.9404 88.8243 43.9404C87.4041 43.9404 86.2613 43.6257 85.396 42.9964C84.5372 42.3605 84.0715 41.5093 83.9989 40.4428H86.8228C86.8955 40.9065 87.1102 41.2642 87.4668 41.5159C87.8235 41.761 88.3024 41.8836 88.9036 41.8836C89.4783 41.8836 89.9307 41.7809 90.261 41.5755C90.5913 41.3636 90.7565 41.0788 90.7565 40.721C90.7565 40.4361 90.6508 40.2109 90.4394 40.0453C90.2346 39.8797 89.8845 39.7373 89.3891 39.6181L87.3777 39.161C85.3035 38.6907 84.2664 37.6474 84.2664 36.0311ZM96.4033 43.7516V32.8118H99.2966V43.7516H96.4033ZM97.85 31.6194C97.4204 31.6194 97.0535 31.4737 96.7499 31.1822C96.4464 30.8907 96.2942 30.5297 96.2942 30.0991C96.2942 29.6686 96.4464 29.3109 96.7499 29.0261C97.0535 28.7346 97.4204 28.5889 97.85 28.5889C98.2854 28.5889 98.6557 28.7346 98.9593 29.0261C99.2637 29.3109 99.415 29.6686 99.415 30.0991C99.415 30.5297 99.2637 30.8907 98.9593 31.1822C98.6557 31.4737 98.2854 31.6194 97.85 31.6194ZM102.526 43.7516V32.8118H105.319V34.7692H105.379C106.019 33.3583 107.189 32.6528 108.887 32.6528C110.096 32.6528 111.043 33.0138 111.73 33.7358C112.424 34.4579 112.771 35.4582 112.771 36.7366V43.7516H109.877V37.3427C109.877 36.614 109.689 36.0543 109.313 35.6634C108.942 35.266 108.417 35.0673 107.737 35.0673C107.043 35.0673 106.482 35.2925 106.052 35.743C105.63 36.1934 105.418 36.7829 105.418 37.5116V43.7516H102.526ZM120.884 43.9404C119.226 43.9404 117.915 43.4369 116.951 42.43C115.986 41.4232 115.504 40.0387 115.504 38.2767C115.504 36.5346 115.99 35.1567 116.96 34.1433C117.932 33.1298 119.24 32.623 120.884 32.623C122.536 32.623 123.844 33.1298 124.809 34.1433C125.779 35.1501 126.265 36.5279 126.265 38.2767C126.265 40.0453 125.783 41.4331 124.818 42.44C123.86 43.4402 122.549 43.9404 120.884 43.9404ZM119.081 40.8104C119.517 41.4066 120.118 41.7047 120.884 41.7047C121.651 41.7047 122.248 41.4066 122.678 40.8104C123.107 40.2076 123.322 39.363 123.322 38.2767C123.322 37.2035 123.104 36.3657 122.668 35.7628C122.239 35.1534 121.644 34.8487 120.884 34.8487C120.118 34.8487 119.517 35.1534 119.081 35.7628C118.651 36.3657 118.437 37.2035 118.437 38.2767C118.437 39.363 118.651 40.2076 119.081 40.8104ZM128.849 36.0311C128.849 35.0044 129.266 34.1796 130.098 33.557C130.93 32.9343 132.037 32.623 133.418 32.623C134.765 32.623 135.852 32.9409 136.677 33.5769C137.503 34.2062 137.926 35.0441 137.945 36.0907H135.27C135.237 35.6601 135.052 35.319 134.715 35.0673C134.378 34.8089 133.933 34.6798 133.378 34.6798C132.856 34.6798 132.437 34.7891 132.12 35.0077C131.803 35.2197 131.644 35.5012 131.644 35.8523C131.644 36.3888 132.129 36.7697 133.101 36.9949L135.152 37.4421C136.248 37.6938 137.031 38.0481 137.5 38.5052C137.975 38.9623 138.213 39.5983 138.213 40.413C138.213 41.4729 137.77 42.3274 136.885 42.9765C136 43.6191 134.841 43.9404 133.407 43.9404C131.987 43.9404 130.845 43.6257 129.979 42.9964C129.121 42.3605 128.655 41.5093 128.582 40.4428H131.406C131.479 40.9065 131.694 41.2642 132.05 41.5159C132.406 41.761 132.886 41.8836 133.487 41.8836C134.061 41.8836 134.514 41.7809 134.844 41.5755C135.175 41.3636 135.339 41.0788 135.339 40.721C135.339 40.4361 135.234 40.2109 135.022 40.0453C134.818 39.8797 134.468 39.7373 133.972 39.6181L131.961 39.161C129.887 38.6907 128.849 37.6474 128.849 36.0311ZM149.714 43.7516H146.722V29.4135H149.714V43.7516ZM153.102 43.7516V32.8118H155.896V34.7692H155.956C156.597 33.3583 157.765 32.6528 159.463 32.6528C160.672 32.6528 161.62 33.0138 162.307 33.7358C163.001 34.4579 163.347 35.4582 163.347 36.7366V43.7516H160.454V37.3427C160.454 36.614 160.265 36.0543 159.889 35.6634C159.52 35.266 158.994 35.0673 158.314 35.0673C157.62 35.0673 157.058 35.2925 156.63 35.743C156.207 36.1934 155.996 36.7829 155.996 37.5116V43.7516H153.102Z" fill="#B2F6FF"/>
<path d="M175.754 44H172.775V29.7227H180.959V32.2031H175.754V35.8848H180.597V38.3555H175.754V44ZM186.496 33.082V44H183.517V33.082H186.496ZM185.011 28.8047C185.454 28.8047 185.835 28.9089 186.154 29.1172C186.473 29.319 186.633 29.6999 186.633 30.2598C186.633 30.8132 186.473 31.1973 186.154 31.4121C185.835 31.6204 185.454 31.7246 185.011 31.7246C184.562 31.7246 184.178 31.6204 183.859 31.4121C183.547 31.1973 183.39 30.8132 183.39 30.2598C183.39 29.6999 183.547 29.319 183.859 29.1172C184.178 28.9089 184.562 28.8047 185.011 28.8047Z" fill="#B2F6FF"/>
</g>
<defs>
<clipPath id="clip0_185_705">
<rect width="200" height="48" fill="white"/>
</clipPath>
</defs>
</svg>
